# xmcd
#
# Track frame offsets: 
#        150
#        17825
#        33005
#        47120
#        72401
#        97656
#        118970
#        132846
#        148669
#        165916
#        181172
#        197047
#        209646
#        225059
#        248634
#        266491
#
# Disc length: 3770 seconds
#
# Revision: 0
# Processed by: cddbd v1.5.2PL0 Copyright (c) Steve Scherf et al.
# Submitted via: ExactAudioCopy v0.95b3
#
DISCID=d20eb810
DTITLE=David Bowie  - The Rise And Rise Of Ziggy Stardust Volume  2  F
DTITLE=LAC
DYEAR=1900
DGENRE=
TTITLE0=Unwashed And Somewhat Slightly Dazed
TTITLE1=Let Me Sleep Beside You
TTITLE2=Janine
TTITLE3=Waiting For The Man
TTITLE4=The Width Of A Circle
TTITLE5=The Wild Eyed Boy From Freecloud
TTITLE6=The Supermen
TTITLE7=Queen Bitch
TTITLE8=Bombers
TTITLE9=The Supermen
TTITLE10=Looking For A Friend
TTITLE11=Almost Grown
TTITLE12=Kooks
TTITLE13=Song For Bob Dylan
TTITLE14=Andy Warhol
TTITLE15=It Ain't Easy
EXTD=
EXTT0=
EXTT1=
EXTT2=
EXTT3=
EXTT4=
EXTT5=
EXTT6=
EXTT7=
EXTT8=
EXTT9=
EXTT10=
EXTT11=
EXTT12=
EXTT13=
EXTT14=
EXTT15=
PLAYORDER=
